<mxfile host="app.diagrams.net" modified="2023-04-10T06:23:27.122Z" agent="Mozilla/5.0 (Macintosh; Intel Mac OS X 10_15_7) AppleWebKit/537.36 (KHTML, like Gecko) Chrome/111.0.0.0 Safari/537.36" version="21.1.2" etag="li5BQW9IlsS8Te6afJaJ" type="github">
  <diagram name="Page-1" id="1cUgCMc0FW8aWbhkEpZK">
    <mxGraphModel>
      <root>
        <mxCell id="0" />
        <mxCell id="1" parent="0" />
      </root>
    </mxGraphModel>
  </diagram>
</mxfile>
